<?xml version="1.0" encoding="UTF-8"?>
<svg width="800px" height="800px" viewBox="0 0 24 24" version="1.1" xmlns="http://www.w3.org/2000/svg" xmlns:xlink="http://www.w3.org/1999/xlink">
    <g stroke="none" stroke-width="1" fill="none" fill-rule="evenodd">
        <path d="M12,12 C13.1045695,12 14,11.1045695 14,10 C14,8.8954305 13.1045695,8 12,8 C10.8954305,8 10,8.8954305 10,10 C10,11.1045695 10.8954305,12 12,12 Z M12,14 C9.790861,14 8,12.209139 8,10 C8,7.790861 9.790861,6 12,6 C14.209139,6 16,7.790861 16,10 C16,12.209139 14.209139,14 12,14 Z" fill="#000000" fill-rule="nonzero"></path>
        <path d="M7,22 L17,22 C18.6568542,22 20,20.6568542 20,19 L20,9 C20,7.34314575 18.6568542,6 17,6 L16,6 L16,5 C16,3.34314575 14.6568542,2 13,2 L11,2 C9.34314575,2 8,3.34314575 8,5 L8,6 L7,6 C5.34314575,6 4,7.34314575 4,9 L4,19 C4,20.6568542 5.34314575,22 7,22 Z M10,5 C10,4.44771525 10.4477153,4 11,4 L13,4 C13.5522847,4 14,4.44771525 14,5 L14,6 L10,6 L10,5 Z M7,8 L17,8 C17.5522847,8 18,8.44771525 18,9 L18,19 C18,19.5522847 17.5522847,20 17,20 L7,20 C6.44771525,20 6,19.5522847 6,19 L6,9 C6,8.44771525 6.44771525,8 7,8 Z" fill="#000000" fill-rule="nonzero"></path>
    </g>
</svg>
