<svg xmlns="http://www.w3.org/2000/svg" width="64" height="64" viewBox="0 0 64 64" fill="none">
  <defs>
    <linearGradient id="gradient" x1="0%" y1="0%" x2="100%" y2="100%">
      <stop offset="0%" stop-color="#8B5CF6" />
      <stop offset="100%" stop-color="#3B82F6" />
    </linearGradient>
    <filter id="glow" x="-20%" y="-20%" width="140%" height="140%">
      <feGaussianBlur stdDeviation="2" result="blur" />
      <feComposite in="SourceGraphic" in2="blur" operator="over" />
    </filter>
  </defs>
  <rect width="64" height="64" rx="16" fill="url(#gradient)" opacity="0.1" />
  <g filter="url(#glow)">
    <path d="M32 12C19.85 12 10 21.85 10 34C10 46.15 19.85 56 32 56C44.15 56 54 46.15 54 34C54 21.85 44.15 12 32 12ZM32 18C38.07 18 43.44 21.37 46.47 26.5H44C43.17 26.5 42.5 27.17 42.5 28C42.5 28.83 43.17 29.5 44 29.5H47.82C47.94 30.32 48 31.15 48 32H44C43.17 32 42.5 32.67 42.5 33.5C42.5 34.33 43.17 35 44 35H48C47.94 35.85 47.82 36.68 47.64 37.5H44C43.17 37.5 42.5 38.17 42.5 39C42.5 39.83 43.17 40.5 44 40.5H46.47C43.44 45.63 38.07 49 32 49C25.93 49 20.56 45.63 17.53 40.5H20C20.83 40.5 21.5 39.83 21.5 39C21.5 38.17 20.83 37.5 20 37.5H16.36C16.18 36.68 16.06 35.85 16 35H20C20.83 35 21.5 34.33 21.5 33.5C21.5 32.67 20.83 32 20 32H16C16 31.15 16.06 30.32 16.18 29.5H20C20.83 29.5 21.5 28.83 21.5 28C21.5 27.17 20.83 26.5 20 26.5H17.53C20.56 21.37 25.93 18 32 18Z" fill="url(#gradient)" />
    <path d="M32 24C28.7 24 26 26.7 26 30C26 33.3 28.7 36 32 36C35.3 36 38 33.3 38 30C38 26.7 35.3 24 32 24ZM32 33C30.35 33 29 31.65 29 30C29 28.35 30.35 27 32 27C33.65 27 35 28.35 35 30C35 31.65 33.65 33 32 33Z" fill="url(#gradient)" />
    <path d="M32 39C28.7 39 26 41.7 26 45C26 48.3 28.7 51 32 51C35.3 51 38 48.3 38 45C38 41.7 35.3 39 32 39ZM32 48C30.35 48 29 46.65 29 45C29 43.35 30.35 42 32 42C33.65 42 35 43.35 35 45C35 46.65 33.65 48 32 48Z" fill="url(#gradient)" />
  </g>
  <circle cx="32" cy="32" r="30" stroke="url(#gradient)" stroke-width="2" stroke-dasharray="4 4" opacity="0.6" />
</svg>
